<svg width="900" height="500" viewBox="0 0 900 500" xmlns="http://www.w3.org/2000/svg">
  <defs>
    <marker id="arrow" viewBox="0 0 10 10" refX="8" refY="5" markerWidth="6" markerHeight="6" orient="auto">
      <path d="M 0 0 L 10 5 L 0 10 Z" fill="#555"/>
    </marker>
  </defs>

  <rect width="900" height="500" fill="#0f0f0f"/>

  <rect x="20" y="20" width="860" height="460" rx="16" fill="#1a1a1a" stroke="#2a2a2a" stroke-width="1.5"/>

  <!-- Top connecting bar -->
  <rect x="20" y="20" width="860" height="42" rx="16" fill="#151515" stroke="#2a2a2a" stroke-width="1.5"/>
  <rect x="20" y="42" width="860" height="10" fill="#151515"/>
  <text x="450" y="49" text-anchor="middle" font-family="system-ui, -apple-system, sans-serif" font-size="18" font-weight="600" fill="#e0e0e0">Nahuel Gomez — Same Engineer, Expanded Toolkit</text>

  <line x1="40" y1="68" x2="860" y2="68" stroke="#2a2a2a" stroke-width="1"/>
  <line x1="450" y1="68" x2="450" y2="73" stroke="#a78bfa" stroke-width="2"/>

  <line x1="450" y1="80" x2="450" y2="470" stroke="#2a2a2a" stroke-width="1" stroke-dasharray="3,5"/>

  <!-- Column headers -->
  <text x="240" y="93" text-anchor="middle" font-family="system-ui, -apple-system, sans-serif" font-size="14" font-weight="600" fill="#a78bfa">Traditional SDET</text>
  <text x="240" y="108" text-anchor="middle" font-family="system-ui, -apple-system, sans-serif" font-size="11" fill="#666">Newfold Digital 2019-2023</text>

  <text x="660" y="93" text-anchor="middle" font-family="system-ui, -apple-system, sans-serif" font-size="14" font-weight="600" fill="#7c3aed">Agentic QA</text>
  <text x="660" y="108" text-anchor="middle" font-family="system-ui, -apple-system, sans-serif" font-size="11" fill="#666">Current 2025+</text>

  <!-- LEFT COLUMN — Traditional SDET -->
  <g>
    <rect x="50" y="130" width="380" height="34" rx="8" fill="#181818" stroke="#a78bfa" stroke-width="1.5"/>
    <rect x="50" y="130" width="6" height="34" rx="3" fill="#a78bfa"/>
    <text x="240" y="151" text-anchor="middle" font-family="system-ui, -apple-system, sans-serif" font-size="13" font-weight="500" fill="#e0e0e0">Requirements</text>
    <line x1="240" y1="164" x2="240" y2="181" stroke="#555" stroke-width="1.5" marker-end="url(#arrow)"/>
  </g>

  <g>
    <rect x="50" y="184" width="380" height="34" rx="8" fill="#181818" stroke="#a78bfa" stroke-width="1.5"/>
    <rect x="50" y="184" width="6" height="34" rx="3" fill="#a78bfa"/>
    <text x="240" y="205" text-anchor="middle" font-family="system-ui, -apple-system, sans-serif" font-size="13" font-weight="500" fill="#e0e0e0">Manual Tests</text>
    <line x1="240" y1="218" x2="240" y2="235" stroke="#555" stroke-width="1.5" marker-end="url(#arrow)"/>
  </g>

  <g>
    <rect x="50" y="238" width="380" height="34" rx="8" fill="#181818" stroke="#a78bfa" stroke-width="1.5"/>
    <rect x="50" y="238" width="6" height="34" rx="3" fill="#a78bfa"/>
    <text x="240" y="259" text-anchor="middle" font-family="system-ui, -apple-system, sans-serif" font-size="13" font-weight="500" fill="#e0e0e0">Cucumber Features</text>
    <line x1="240" y1="272" x2="240" y2="289" stroke="#555" stroke-width="1.5" marker-end="url(#arrow)"/>
  </g>

  <g>
    <rect x="50" y="292" width="380" height="34" rx="8" fill="#181818" stroke="#a78bfa" stroke-width="1.5"/>
    <rect x="50" y="292" width="6" height="34" rx="3" fill="#a78bfa"/>
    <text x="240" y="313" text-anchor="middle" font-family="system-ui, -apple-system, sans-serif" font-size="13" font-weight="500" fill="#e0e0e0">Jenkins Pipeline</text>
    <line x1="240" y1="326" x2="240" y2="343" stroke="#555" stroke-width="1.5" marker-end="url(#arrow)"/>
  </g>

  <g>
    <rect x="50" y="346" width="380" height="34" rx="8" fill="#181818" stroke="#a78bfa" stroke-width="1.5"/>
    <rect x="50" y="346" width="6" height="34" rx="3" fill="#a78bfa"/>
    <text x="240" y="367" text-anchor="middle" font-family="system-ui, -apple-system, sans-serif" font-size="13" font-weight="500" fill="#e0e0e0">Allure Reports</text>
    <line x1="240" y1="380" x2="240" y2="397" stroke="#555" stroke-width="1.5" marker-end="url(#arrow)"/>
  </g>

  <g>
    <rect x="50" y="400" width="380" height="34" rx="8" fill="#a78bfa" fill-opacity="0.08" stroke="#a78bfa" stroke-width="2"/>
    <rect x="50" y="400" width="6" height="34" rx="3" fill="#a78bfa"/>
    <text x="240" y="421" text-anchor="middle" font-family="system-ui, -apple-system, sans-serif" font-size="13" font-weight="700" fill="#a78bfa">Release</text>
  </g>

  <!-- RIGHT COLUMN — Agentic QA -->
  <g>
    <rect x="470" y="130" width="380" height="34" rx="8" fill="#181818" stroke="#7c3aed" stroke-width="1.5"/>
    <rect x="470" y="130" width="6" height="34" rx="3" fill="#7c3aed"/>
    <text x="660" y="151" text-anchor="middle" font-family="system-ui, -apple-system, sans-serif" font-size="13" font-weight="500" fill="#e0e0e0">AC Gherkin</text>
    <line x1="660" y1="164" x2="660" y2="181" stroke="#555" stroke-width="1.5" marker-end="url(#arrow)"/>
  </g>

  <g>
    <rect x="470" y="184" width="380" height="34" rx="8" fill="#181818" stroke="#7c3aed" stroke-width="1.5"/>
    <rect x="470" y="184" width="6" height="34" rx="3" fill="#7c3aed"/>
    <text x="660" y="205" text-anchor="middle" font-family="system-ui, -apple-system, sans-serif" font-size="13" font-weight="500" fill="#e0e0e0">AI Test Gen</text>
    <line x1="660" y1="218" x2="660" y2="235" stroke="#555" stroke-width="1.5" marker-end="url(#arrow)"/>
  </g>

  <g>
    <rect x="470" y="238" width="380" height="34" rx="8" fill="#181818" stroke="#7c3aed" stroke-width="1.5"/>
    <rect x="470" y="238" width="6" height="34" rx="3" fill="#7c3aed"/>
    <text x="660" y="259" text-anchor="middle" font-family="system-ui, -apple-system, sans-serif" font-size="13" font-weight="500" fill="#e0e0e0">KATA Framework</text>
    <line x1="660" y1="272" x2="660" y2="289" stroke="#555" stroke-width="1.5" marker-end="url(#arrow)"/>
  </g>

  <g>
    <rect x="470" y="292" width="380" height="34" rx="8" fill="#181818" stroke="#7c3aed" stroke-width="1.5"/>
    <rect x="470" y="292" width="6" height="34" rx="3" fill="#7c3aed"/>
    <text x="660" y="313" text-anchor="middle" font-family="system-ui, -apple-system, sans-serif" font-size="13" font-weight="500" fill="#e0e0e0">GitHub Actions</text>
    <line x1="660" y1="326" x2="660" y2="343" stroke="#555" stroke-width="1.5" marker-end="url(#arrow)"/>
  </g>

  <g>
    <rect x="470" y="346" width="380" height="34" rx="8" fill="#181818" stroke="#7c3aed" stroke-width="1.5"/>
    <rect x="470" y="346" width="6" height="34" rx="3" fill="#7c3aed"/>
    <text x="660" y="367" text-anchor="middle" font-family="system-ui, -apple-system, sans-serif" font-size="13" font-weight="500" fill="#e0e0e0">Health Checks</text>
    <line x1="660" y1="380" x2="660" y2="397" stroke="#555" stroke-width="1.5" marker-end="url(#arrow)"/>
  </g>

  <g>
    <rect x="470" y="400" width="380" height="34" rx="8" fill="#7c3aed" fill-opacity="0.08" stroke="#7c3aed" stroke-width="2"/>
    <rect x="470" y="400" width="6" height="34" rx="3" fill="#7c3aed"/>
    <text x="660" y="421" text-anchor="middle" font-family="system-ui, -apple-system, sans-serif" font-size="13" font-weight="700" fill="#7c3aed">Deploy</text>
  </g>
</svg>
